<svg width="23" height="24" viewBox="0 0 23 24" fill="none" xmlns="http://www.w3.org/2000/svg">
<path d="M22.0879 20.4287C22.147 18.9846 22.2557 13.9784 21.7704 12.2667L20.0851 6.32256C19.858 5.5216 18.9924 5.0423 18.1556 5.25421C17.319 5.46605 16.8229 6.29016 17.05 7.09112L17.7686 9.62573C17.8109 9.77468 17.7171 9.92816 17.5596 9.96805C17.402 10.008 17.2396 9.91933 17.1974 9.77038L16.0744 5.80939C15.8473 5.00866 14.9816 4.52949 14.1447 4.74141C13.3079 4.95329 12.8119 5.7773 13.039 6.57803L13.8396 9.40196C13.8819 9.55092 13.788 9.70434 13.6305 9.74421C13.473 9.78411 13.3107 9.69547 13.2685 9.5466L12.1455 5.586C11.9185 4.78534 11.053 4.30643 10.2162 4.51834C9.37954 4.7302 8.88345 5.5539 9.11046 6.35455L9.91132 9.17918C9.95349 9.3279 9.8596 9.48158 9.70215 9.52145C9.54454 9.56137 9.38217 9.47258 9.34 9.32386L7.03422 1.1914C6.80723 0.390493 5.94154 -0.08845 5.10464 0.123475C4.26782 0.335379 3.77159 1.1592 3.99866 1.96008L7.56907 14.5529C7.60083 14.6649 7.55526 14.7852 7.45542 14.8526C7.35645 14.9195 7.21901 14.921 7.11876 14.8572L2.47442 11.9145L2.42111 11.8842C2.064 11.7015 1.65014 11.6549 1.25613 11.7524L1.24599 11.755C0.83805 11.8631 0.501407 12.1061 0.298243 12.4395C0.0420387 12.8593 -0.0529088 13.5614 0.952208 14.5238C2.47789 15.983 4.07484 17.3291 5.4896 18.5214C6.54152 19.4083 7.53517 20.2458 8.30419 20.9697C8.79595 21.4331 9.90572 22.6956 10.5099 23.3604L22.0879 20.4286L22.0879 20.4287Z" fill="#F0CAB5"/>
</svg>
